<?xml version="1.0" encoding="UTF-8" standalone="no"?>
<!-- Created with Inkscape (http://www.inkscape.org/) -->

<svg
   xmlns:dc="http://purl.org/dc/elements/1.1/"
   xmlns:cc="http://creativecommons.org/ns#"
   xmlns:rdf="http://www.w3.org/1999/02/22-rdf-syntax-ns#"
   xmlns:svg="http://www.w3.org/2000/svg"
   xmlns="http://www.w3.org/2000/svg"
   xmlns:sodipodi="http://sodipodi.sourceforge.net/DTD/sodipodi-0.dtd"
   xmlns:inkscape="http://www.inkscape.org/namespaces/inkscape"
   width="584.13391"
   height="340.09436"
   id="svg2"
   version="1.1"
   inkscape:version="0.48.2 r9819"
   sodipodi:docname="Documento nuevo 1">
  <defs
     id="defs4" />
  <sodipodi:namedview
     id="base"
     pagecolor="#ffffff"
     bordercolor="#666666"
     borderopacity="1.0"
     inkscape:pageopacity="0.0"
     inkscape:pageshadow="2"
     inkscape:zoom="0.98994949"
     inkscape:cx="435.62249"
     inkscape:cy="228.03374"
     inkscape:document-units="px"
     inkscape:current-layer="layer1"
     showgrid="false"
     showguides="true"
     inkscape:guide-bbox="true"
     fit-margin-top="0"
     fit-margin-left="0"
     fit-margin-right="0"
     fit-margin-bottom="0"
     inkscape:window-width="1440"
     inkscape:window-height="790"
     inkscape:window-x="0"
     inkscape:window-y="0"
     inkscape:window-maximized="1">
    <sodipodi:guide
       orientation="1,0"
       position="-35.006127,-122.11351"
       id="guide3809" />
  </sodipodi:namedview>
  <metadata
     id="metadata7">
    <rdf:RDF>
      <cc:Work
         rdf:about="">
        <dc:format>image/svg+xml</dc:format>
        <dc:type
           rdf:resource="http://purl.org/dc/dcmitype/StillImage" />
        <dc:title></dc:title>
      </cc:Work>
    </rdf:RDF>
  </metadata>
  <g
     inkscape:label="Capa 1"
     inkscape:groupmode="layer"
     id="layer1"
     transform="translate(-92.584822,-226.49938)">
    <rect
       style="fill:#6600cc;fill-opacity:0.01230349;stroke:#000000;stroke-width:1.5;stroke-linecap:round;stroke-miterlimit:4;stroke-opacity:1;stroke-dasharray:none;stroke-dashoffset:0"
       id="rect3827"
       width="290"
       height="88.531181"
       x="382.96918"
       y="477.31833"
       ry="11.111678" />
    <path
       sodipodi:type="arc"
       style="fill:none;stroke:#000000;stroke-width:2;stroke-linecap:round;stroke-miterlimit:4;stroke-opacity:1;stroke-dasharray:none"
       id="path2985"
       sodipodi:cx="135.71428"
       sodipodi:cy="348.07648"
       sodipodi:rx="118.57143"
       sodipodi:ry="81.428574"
       d="m 254.28571,348.07648 c 0,44.97176 -53.08624,81.42857 -118.57143,81.42857 -65.485191,0 -118.571427,-36.45681 -118.571427,-81.42857 0,-44.97176 53.086236,-81.42858 118.571427,-81.42858 65.48519,0 118.57143,36.45682 118.57143,81.42858 z"
       transform="translate(76.428572,27.142857)" />
    <path
       sodipodi:type="arc"
       style="fill:none;stroke:#000000;stroke-width:2;stroke-linecap:round;stroke-miterlimit:4;stroke-opacity:1;stroke-dasharray:none"
       id="path2987"
       sodipodi:cx="554.64288"
       sodipodi:cy="329.14789"
       sodipodi:rx="121.07143"
       sodipodi:ry="71.071426"
       d="m 675.71431,329.14789 c 0,39.25166 -54.20552,71.07142 -121.07143,71.07142 -66.8659,0 -121.07142,-31.81976 -121.07142,-71.07142 0,-39.25167 54.20552,-71.07143 121.07142,-71.07143 66.86591,0 121.07143,31.81976 121.07143,71.07143 z" />
    <path
       sodipodi:type="arc"
       style="fill:#000000;fill-opacity:1;stroke:#000000;stroke-width:2;stroke-linecap:round;stroke-miterlimit:4;stroke-opacity:1;stroke-dasharray:none"
       id="path2989"
       sodipodi:cx="163.92857"
       sodipodi:cy="370.21933"
       sodipodi:rx="6.7857141"
       sodipodi:ry="7.1428571"
       d="m 170.71429,370.21933 c 0,3.94489 -3.03807,7.14286 -6.78572,7.14286 -3.74764,0 -6.78571,-3.19797 -6.78571,-7.14286 0,-3.94489 3.03807,-7.14286 6.78571,-7.14286 3.74765,0 6.78572,3.19797 6.78572,7.14286 z"
       transform="matrix(1.0308756,0,0,-0.97933176,-36.989956,743.64402)" />
    <path
       transform="matrix(1.0308756,0,0,-0.97933176,5.1529012,701.50116)"
       d="m 170.71429,370.21933 c 0,3.94489 -3.03807,7.14286 -6.78572,7.14286 -3.74764,0 -6.78571,-3.19797 -6.78571,-7.14286 0,-3.94489 3.03807,-7.14286 6.78571,-7.14286 3.74765,0 6.78572,3.19797 6.78572,7.14286 z"
       sodipodi:ry="7.1428571"
       sodipodi:rx="6.7857141"
       sodipodi:cy="370.21933"
       sodipodi:cx="163.92857"
       id="path3759"
       style="fill:#000000;fill-opacity:1;stroke:#000000;stroke-width:2;stroke-linecap:round;stroke-miterlimit:4;stroke-opacity:1;stroke-dasharray:none"
       sodipodi:type="arc" />
    <path
       transform="matrix(1.0308756,0,0,-0.97933176,22.295758,766.50116)"
       d="m 170.71429,370.21933 c 0,3.94489 -3.03807,7.14286 -6.78572,7.14286 -3.74764,0 -6.78571,-3.19797 -6.78571,-7.14286 0,-3.94489 3.03807,-7.14286 6.78571,-7.14286 3.74765,0 6.78572,3.19797 6.78572,7.14286 z"
       sodipodi:ry="7.1428571"
       sodipodi:rx="6.7857141"
       sodipodi:cy="370.21933"
       sodipodi:cx="163.92857"
       id="path3761"
       style="fill:#000000;fill-opacity:1;stroke:#000000;stroke-width:2;stroke-linecap:round;stroke-miterlimit:4;stroke-opacity:1;stroke-dasharray:none"
       sodipodi:type="arc" />
    <path
       sodipodi:type="arc"
       style="fill:#000000;fill-opacity:1;stroke:#000000;stroke-width:2;stroke-linecap:round;stroke-miterlimit:4;stroke-opacity:1;stroke-dasharray:none"
       id="path3763"
       sodipodi:cx="163.92857"
       sodipodi:cy="370.21933"
       sodipodi:rx="6.7857141"
       sodipodi:ry="7.1428571"
       d="m 170.71429,370.21933 c 0,3.94489 -3.03807,7.14286 -6.78572,7.14286 -3.74764,0 -6.78571,-3.19797 -6.78571,-7.14286 0,-3.94489 3.03807,-7.14286 6.78571,-7.14286 3.74765,0 6.78572,3.19797 6.78572,7.14286 z"
       transform="matrix(1.0308756,0,0,-0.97933176,110.1529,700.07258)" />
    <path
       transform="matrix(1.0308756,0,0,-0.97933176,303.72434,670.78687)"
       d="m 170.71429,370.21933 c 0,3.94489 -3.03807,7.14286 -6.78572,7.14286 -3.74764,0 -6.78571,-3.19797 -6.78571,-7.14286 0,-3.94489 3.03807,-7.14286 6.78571,-7.14286 3.74765,0 6.78572,3.19797 6.78572,7.14286 z"
       sodipodi:ry="7.1428571"
       sodipodi:rx="6.7857141"
       sodipodi:cy="370.21933"
       sodipodi:cx="163.92857"
       id="path3765"
       style="fill:#000000;fill-opacity:1;stroke:#000000;stroke-width:2;stroke-linecap:round;stroke-miterlimit:4;stroke-opacity:1;stroke-dasharray:none"
       sodipodi:type="arc" />
    <path
       transform="matrix(1.0308756,0,0,-0.97933176,385.86719,713.64401)"
       d="m 170.71429,370.21933 c 0,3.94489 -3.03807,7.14286 -6.78572,7.14286 -3.74764,0 -6.78571,-3.19797 -6.78571,-7.14286 0,-3.94489 3.03807,-7.14286 6.78571,-7.14286 3.74765,0 6.78572,3.19797 6.78572,7.14286 z"
       sodipodi:ry="7.1428571"
       sodipodi:rx="6.7857141"
       sodipodi:cy="370.21933"
       sodipodi:cx="163.92857"
       id="path3769"
       style="fill:#000000;fill-opacity:1;stroke:#000000;stroke-width:2;stroke-linecap:round;stroke-miterlimit:4;stroke-opacity:1;stroke-dasharray:none"
       sodipodi:type="arc" />
    <path
       sodipodi:type="arc"
       style="fill:#000000;fill-opacity:1;stroke:#000000;stroke-width:2;stroke-linecap:round;stroke-miterlimit:4;stroke-opacity:1;stroke-dasharray:none"
       id="path3771"
       sodipodi:cx="163.92857"
       sodipodi:cy="370.21933"
       sodipodi:rx="6.7857141"
       sodipodi:ry="7.1428571"
       d="m 170.71429,370.21933 c 0,3.94489 -3.03807,7.14286 -6.78572,7.14286 -3.74764,0 -6.78571,-3.19797 -6.78571,-7.14286 0,-3.94489 3.03807,-7.14286 6.78571,-7.14286 3.74765,0 6.78572,3.19797 6.78572,7.14286 z"
       transform="matrix(1.0308756,0,0,-0.97933176,437.29576,664.3583)" />
    <path
       style="fill:none;stroke:#000000;stroke-width:3;stroke-linecap:butt;stroke-linejoin:miter;stroke-miterlimit:4;stroke-opacity:1;stroke-dasharray:24, 6, 3, 6;stroke-dashoffset:0"
       d="m 132.14286,381.6479 c 474.28571,-80 474.28571,-80 474.28571,-80"
       id="path3773"
       inkscape:connector-curvature="0" />
    <path
       style="fill:#ffff00;stroke:#000000;stroke-width:3;stroke-linecap:butt;stroke-linejoin:miter;stroke-miterlimit:4;stroke-opacity:1;stroke-dasharray:3, 3;stroke-dashoffset:0"
       d="M 473.57143,308.79075 C 277.85714,338.07647 279.28571,338.07647 279.28571,338.07647"
       id="path3775"
       inkscape:connector-curvature="0" />
    <path
       style="fill:none;stroke:#000000;stroke-width:3;stroke-linecap:butt;stroke-linejoin:miter;stroke-miterlimit:4;stroke-opacity:1;stroke-dasharray:2.99999993, 2.99999993;stroke-dashoffset:0"
       d="m 399.01024,504.40912 c 112.29107,0 111.25135,0 111.25135,0"
       id="path3815"
       inkscape:connector-curvature="0" />
    <path
       inkscape:connector-curvature="0"
       id="path3817"
       d="m 399.01027,533.57523 c 113.98615,0 112.93073,0 112.93073,0"
       style="fill:none;stroke:#000000;stroke-width:3;stroke-linecap:butt;stroke-linejoin:miter;stroke-miterlimit:4;stroke-opacity:1;stroke-dasharray:24.00000025, 6.00000006, 3.00000003, 6.00000006;stroke-dashoffset:0" />
    <text
       xml:space="preserve"
       style="font-size:18px;font-style:normal;font-variant:normal;font-weight:500;font-stretch:normal;line-height:125%;letter-spacing:0px;word-spacing:0px;fill:#000000;fill-opacity:1;stroke:none;font-family:CMU Serif;-inkscape-font-specification:CMU Serif Medium"
       x="522.24884"
       y="508.90012"
       id="text3819"
       sodipodi:linespacing="125%"><tspan
         sodipodi:role="line"
         id="tspan3821"
         x="522.24884"
         y="508.90012">Single Link</tspan></text>
    <text
       sodipodi:linespacing="125%"
       id="text3823"
       y="538.17426"
       x="522.24884"
       style="font-size:18px;font-style:normal;font-variant:normal;font-weight:500;font-stretch:normal;line-height:125%;letter-spacing:0px;word-spacing:0px;fill:#000000;fill-opacity:1;stroke:none;font-family:CMU Serif;-inkscape-font-specification:CMU Serif Medium"
       xml:space="preserve"><tspan
         y="538.17426"
         x="522.24884"
         id="tspan3825"
         sodipodi:role="line">Complete Link</tspan></text>
    <text
       sodipodi:linespacing="125%"
       id="text3829"
       y="275.55487"
       x="172.73607"
       style="font-size:18px;font-style:normal;font-variant:normal;font-weight:500;font-stretch:normal;line-height:125%;letter-spacing:0px;word-spacing:0px;fill:#000000;fill-opacity:1;stroke:none;font-family:CMU Serif;-inkscape-font-specification:CMU Serif Medium"
       xml:space="preserve"><tspan
         y="275.55487"
         x="172.73607"
         id="tspan3831"
         sodipodi:role="line">Cluster A</tspan></text>
    <text
       xml:space="preserve"
       style="font-size:18px;font-style:normal;font-variant:normal;font-weight:500;font-stretch:normal;line-height:125%;letter-spacing:0px;word-spacing:0px;fill:#000000;fill-opacity:1;stroke:none;font-family:CMU Serif;-inkscape-font-specification:CMU Serif Medium"
       x="512.14734"
       y="239.18938"
       id="text3833"
       sodipodi:linespacing="125%"><tspan
         sodipodi:role="line"
         id="tspan3835"
         x="512.14734"
         y="239.18938">Cluster B</tspan></text>
  </g>
</svg>
